<svg width="50" height="50" viewBox="0 0 50 50" fill="none" xmlns="http://www.w3.org/2000/svg">
<g clip-path="url(#clip0_1313_9141)">
<path fill-rule="evenodd" clip-rule="evenodd" d="M18.0635 35.5301C23.6087 37.078 27.7935 41.8872 28.422 47.7596C28.4456 47.9809 28.3741 48.2018 28.2254 48.3673C28.0767 48.5328 27.8646 48.6274 27.6421 48.6274L0.78434 48.6275C0.561791 48.6275 0.349732 48.5329 0.201006 48.3674C0.0522807 48.2019 -0.0191899 47.981 0.00443756 47.7597C0.632869 41.8872 4.81767 37.078 10.3631 35.5301C8.1115 34.2076 6.59993 31.7607 6.59993 28.9607C6.59993 24.756 10.0087 21.3474 14.2133 21.3474C18.4181 21.3474 21.8267 24.756 21.8267 28.9607C21.8267 31.7607 20.3151 34.2076 18.0635 35.5301ZM14.2133 36.574C7.95032 36.574 2.74444 41.0994 1.68738 47.0588L26.739 47.0587C25.6818 41.0994 20.4761 36.574 14.2133 36.574ZM14.2133 35.0054C17.5517 35.0054 20.2581 32.2991 20.2581 28.9607C20.2581 25.6224 17.5517 22.916 14.2133 22.916C10.8749 22.916 8.16856 25.6224 8.16856 28.9607C8.16856 32.2991 10.8749 35.0054 14.2133 35.0054ZM11.0707 19.677C11.0707 20.1098 10.7193 20.4613 10.2864 20.4613C9.85355 20.4613 9.50208 20.1098 9.50208 19.677V17.0248C9.50208 16.7003 9.70189 16.4093 10.0047 16.2928L12.7367 15.2414C13.1252 13.7795 13.7045 12.3816 14.4647 11.0768L13.2742 8.39941C13.1424 8.10284 13.2069 7.75569 13.4363 7.52618L17.0283 3.93422C17.2578 3.70471 17.6049 3.64029 17.9015 3.77216L20.5788 4.96265C21.8837 4.20245 23.2812 3.62353 24.7391 3.23863L25.7952 0.501961C25.9119 0.19951 26.2027 0 26.5269 0H31.6078C31.9325 0 32.2235 0.2 32.3399 0.503039L33.3911 3.23882C34.8489 3.62373 36.2462 4.20265 37.5507 4.96255L40.2281 3.77216C40.5246 3.64029 40.8718 3.70471 41.1013 3.93422L44.6933 7.52618C44.9225 7.75539 44.9871 8.10206 44.8558 8.39843L43.6696 11.0761C44.43 12.3813 45.0092 13.7796 45.3941 15.2419L48.1248 16.2928C48.4277 16.4093 48.6275 16.7003 48.6275 17.0248V22.1057C48.6275 22.4302 48.4277 22.7211 48.1248 22.8376L45.3938 23.8887C45.0083 25.3464 44.426 26.7437 43.6692 28.0482L44.8558 30.727C44.9871 31.0233 44.9225 31.37 44.6933 31.5992L41.1013 35.1912C40.8721 35.4204 40.5254 35.4849 40.229 35.3536L37.552 34.1677C36.2504 34.9277 34.8493 35.5069 33.3909 35.8918L32.3398 38.6227C32.2233 38.9256 31.9323 39.1254 31.6078 39.1254H26.5269C26.2025 39.1254 25.9115 38.9256 25.7949 38.6227L24.7439 35.892C23.7055 35.6181 22.6992 35.2449 21.7357 34.7803C21.3457 34.5924 21.1818 34.1231 21.3698 33.7332C21.5579 33.3433 22.027 33.1793 22.417 33.3674C23.4033 33.8429 24.4389 34.213 25.5104 34.4669C25.7624 34.5266 25.9686 34.7068 26.0616 34.9483L27.0654 37.5568H31.0692L32.0732 34.9483C32.1661 34.707 32.3721 34.5269 32.6238 34.4671C34.1999 34.0925 35.708 33.4699 37.0846 32.6186C37.3048 32.4824 37.5781 32.4637 37.8148 32.5686L40.3725 33.7016L43.2037 30.8704L42.0707 28.3126C41.9663 28.077 41.9844 27.8051 42.119 27.5853C42.9661 26.2028 43.5943 24.6988 43.9691 23.1217C44.0289 22.87 44.209 22.6639 44.4505 22.571L47.0588 21.5672V17.5633L44.4505 16.5594C44.2089 16.4665 44.0287 16.2602 43.969 16.0083C43.5943 14.427 42.9716 12.9235 42.1201 11.5418C41.9845 11.3218 41.966 11.049 42.0707 10.8126L43.2037 8.255L40.3731 5.42441L37.8158 6.56137C37.5792 6.66657 37.3061 6.64824 37.0857 6.51245C35.7038 5.66098 34.2003 5.03814 32.6238 4.66343C32.3719 4.60363 32.1658 4.42333 32.073 4.18167L31.069 1.56863H27.0649L26.0562 4.18275C25.9632 4.42392 25.7573 4.60373 25.5058 4.66343C23.9293 5.03814 22.4258 5.66098 21.0438 6.51245C20.8236 6.64824 20.5503 6.66657 20.3138 6.56137L17.7565 5.42441L14.9265 8.25441L16.0636 10.8117C16.1688 11.0482 16.1504 11.3214 16.0146 11.5418C15.1628 12.9242 14.5397 14.4284 14.16 16.0105C14.0998 16.2615 13.92 16.4668 13.6791 16.5594L11.0707 17.5633V19.677ZM23.1105 31.1714C22.7258 30.973 22.5744 30.4997 22.7728 30.1149C22.9711 29.7301 23.4445 29.5788 23.8292 29.7772C25.4011 30.5875 27.1822 31.0452 29.0666 31.0452C35.3911 31.0452 40.5473 25.889 40.5473 19.5645C40.5473 13.24 35.3912 8.0802 29.0666 8.0802C22.7479 8.0802 17.5918 13.2304 17.5823 19.5471C17.5817 19.9799 17.2297 20.3309 16.7968 20.3302C16.3639 20.3295 16.0131 19.9775 16.0137 19.5447C16.0244 12.3653 21.8847 6.51157 29.0666 6.51157C36.2551 6.51157 42.1159 12.376 42.1159 19.5645C42.1159 26.7531 36.2552 32.6138 29.0666 32.6138C26.9236 32.6138 24.8981 32.0928 23.1105 31.1714ZM27.4533 19.5322L32.861 14.068L32.8625 14.0666C33.8738 13.05 35.5244 13.045 36.541 14.0564C37.5572 15.0674 37.5636 16.7121 36.5527 17.7335C34.1325 20.1757 31.7303 22.6327 29.2991 25.0639C28.283 26.08 26.6331 26.08 25.6169 25.0639L21.5872 21.0305C20.5714 20.0147 20.5699 18.3707 21.5857 17.3497L21.5872 17.3482C22.6033 16.3321 24.2533 16.3321 25.2693 17.3482L27.4533 19.5322ZM26.9016 21.1988L24.1602 18.4575C23.7565 18.0537 23.1011 18.0534 22.6971 18.4567C22.2934 18.8632 22.2922 19.5172 22.6963 19.9213L26.7261 23.9547C27.13 24.3586 27.786 24.3586 28.1899 23.9547C30.6193 21.5254 33.0193 19.0704 35.4378 16.63C35.8396 16.224 35.8387 15.5703 35.4347 15.1684C35.0313 14.7671 34.3763 14.7693 33.9748 15.1725L28.0137 21.196C27.8668 21.3443 27.667 21.428 27.4583 21.4285C27.2495 21.4291 27.0491 21.3464 26.9016 21.1988Z" fill="#972B28"/>
</g>
<defs>
<clipPath id="clip0_1313_9141">
<rect width="50" height="50" fill="white"/>
</clipPath>
</defs>
</svg>
